<svg xmlns="http://www.w3.org/2000/svg" xmlns:xlink="http://www.w3.org/1999/xlink" version="1.1" x="0px" y="0px" viewBox="0 0 64 80" enable-background="new 0 0 64 64" xml:space="preserve"><path d="M35.7,27.3l1.3-1.2c-0.4-0.9-0.4-0.9-0.7-1.7l-1.7,0.1c-0.4-0.4-0.6-0.6-1.1-1.1l0.1-1.7c-0.9-0.4-0.9-0.4-1.7-0.7l-1.2,1.3  c-0.6,0-0.9,0-1.5,0L28,21c-0.9,0.4-0.9,0.4-1.7,0.7l0.1,1.7c-0.4,0.4-0.6,0.6-1.1,1.1l-1.7-0.1c-0.4,0.9-0.4,0.9-0.7,1.7l1.3,1.2  c0,0.6,0,0.9,0,1.5L22.9,30c0.4,0.9,0.4,0.9,0.7,1.7l1.7-0.1c0.4,0.4,0.6,0.6,1.1,1.1l-0.1,1.7c0.9,0.4,0.9,0.4,1.7,0.7l1.2-1.3  c0.6,0,0.9,0,1.5,0l1.2,1.3c0.9-0.4,0.9-0.4,1.7-0.7l-0.1-1.7c0.4-0.4,0.6-0.6,1.1-1.1l1.7,0.1c0.4-0.9,0.4-0.9,0.7-1.7l-1.3-1.2  C35.7,28.2,35.7,27.9,35.7,27.3z M30,31.1c-1.7,0-3.1-1.4-3.1-3.1c0-1.7,1.4-3.1,3.1-3.1c1.7,0,3.1,1.4,3.1,3.1  C33.1,29.7,31.7,31.1,30,31.1z"/><path d="M47.8,39.9l1.2-1.1c-0.3-0.8-0.3-0.8-0.7-1.6l-1.6,0.1c-0.4-0.4-0.6-0.6-1-1l0.1-1.6C45,34.3,45,34.3,44.2,34l-1.1,1.2  c-0.6,0-0.8,0-1.4,0L40.7,34c-0.8,0.3-0.8,0.3-1.6,0.7l0.1,1.6c-0.4,0.4-0.6,0.6-1,1l-1.6-0.1c-0.3,0.8-0.3,0.8-0.7,1.6l1.2,1.1  c0,0.6,0,0.8,0,1.4l-1.2,1.1c0.3,0.8,0.3,0.8,0.7,1.6l1.6-0.1c0.4,0.4,0.6,0.6,1,1L39,46.5c0.8,0.3,0.8,0.3,1.6,0.7l1.1-1.2  c0.6,0,0.8,0,1.4,0l1.1,1.2c0.8-0.3,0.8-0.3,1.6-0.7l-0.1-1.6c0.4-0.4,0.6-0.6,1-1l1.6,0.1c0.3-0.8,0.3-0.8,0.7-1.6l-1.2-1.1  C47.8,40.7,47.8,40.4,47.8,39.9z M42.5,43.4c-1.6,0-2.9-1.3-2.9-2.9c0-1.6,1.3-2.9,2.9-2.9s2.9,1.3,2.9,2.9  C45.4,42.1,44.1,43.4,42.5,43.4z"/><polygon points="37,33.8 35.5,33.7 35.6,35.1 37.1,35.2 "/><path d="M46,26c-1.9,0-3.6,0.6-5,1.5c0-0.2,0-0.4,0-0.5c0-6.1-4.9-11-11-11s-11,4.9-11,11c0,0.4,0,0.9,0.1,1.3  C18.4,28.1,17.7,28,17,28c-4.4,0-8,3.6-8,8s3.6,8,8,8h17.4c-0.1-0.2-0.2-0.4-0.4-0.9l-0.6-1.3l1.4-1.2l-1.4-1.2L34,38  c0.3-0.8,0.3-0.8,0.7-1.6l0.1-0.3l-3.5,1.4L29.9,36l-1.4,1.5l-4.4-1.8l0.1-2l-2,0.1l-1.8-4.4l1.5-1.4l-1.5-1.4l1.8-4.4l2,0.1l-0.1-2  l4.4-1.8l1.4,1.5l1.4-1.5l4.4,1.8l-0.1,2l2-0.1l1.8,4.4l-1.5,1.4l1.5,1.4L37.9,33l0.3-0.1c0.8-0.3,0.8-0.3,1.6-0.7l1.3-0.5l1.2,1.4  l1.2-1.4l1.3,0.6c0.8,0.3,0.8,0.3,1.6,0.7l1.3,0.5l-0.1,1.9l1.9-0.1l0.5,1.3c0.3,0.8,0.3,0.8,0.7,1.6l0.6,1.3L50,40.6l1.4,1.2  l-0.2,0.6C53.5,40.7,55,38,55,35C55,30,51,26,46,26z"/><text x="0" y="79" fill="#000000" font-size="5px" font-weight="bold" font-family="'Helvetica Neue', Helvetica, Arial-Unicode, Arial, Sans-serif">Created by Nunnicha Supagrit</text><text x="0" y="84" fill="#000000" font-size="5px" font-weight="bold" font-family="'Helvetica Neue', Helvetica, Arial-Unicode, Arial, Sans-serif">from the Noun Project</text></svg>