<svg xmlns="http://www.w3.org/2000/svg" version="1.1" viewBox="-5.0 -10.0 110.0 135.0">
 <path d="m72.031 27.969h16.043c2.5586 0 4.8828 1.043 6.5703 2.7266 1.6836 1.6836 2.7266 4.0117 2.7266 6.5703v25.465c0 2.5586-1.043 4.8828-2.7266 6.5703-1.6836 1.6836-4.0117 2.7266-6.5703 2.7266h-16.043v16.031c0 2.5586-1.043 4.8828-2.7266 6.5703-1.6836 1.6836-4.0117 2.7266-6.5703 2.7266h-25.465c-2.5586 0-4.8828-1.043-6.5703-2.7266-1.6836-1.6836-2.7266-4.0117-2.7266-6.5703v-16.031h-16.043c-2.5586 0-4.8828-1.043-6.5703-2.7266-1.6836-1.6836-2.7266-4.0117-2.7266-6.5703v-25.465c0-2.5586 1.043-4.8828 2.7266-6.5703 1.6836-1.6836 4.0117-2.7266 6.5703-2.7266h16.043v-16.031c0-2.5586 1.043-4.8828 2.7266-6.5703 1.6836-1.6836 4.0117-2.7266 6.5703-2.7266h25.465c2.5586 0 4.8828 1.043 6.5703 2.7266 1.6836 1.6836 2.7266 4.0117 2.7266 6.5703zm-22.031 44.062c0.60938 0 1.1055-0.49609 1.1055-1.1055s-0.49609-1.1055-1.1055-1.1055-1.1055 0.49609-1.1055 1.1055 0.49609 1.1055 1.1055 1.1055zm0-41.844c0.60938 0 1.1055-0.49609 1.1055-1.1055s-0.49609-1.1055-1.1055-1.1055-1.1055 0.49609-1.1055 1.1055 0.49609 1.1055 1.1055 1.1055zm-34.242 9.3477h20.738c0.60938 0 1.1055-0.49609 1.1055-1.1055 0-0.60938-0.49609-1.1055-1.1055-1.1055l-20.738 0.003906c-0.60937 0-1.1055 0.49609-1.1055 1.1055s0.49609 1.1055 1.1055 1.1055zm47.738 23.148h20.738c0.60938 0 1.1055-0.49609 1.1055-1.1055s-0.49609-1.1055-1.1055-1.1055h-20.738c-0.60938 0-1.1055 0.49609-1.1055 1.1055s0.49609 1.1055 1.1055 1.1055zm-1.043 20.105c-1.3281 0-2.5273 0.53516-3.3984 1.4102-0.875 0.875-1.4102 2.0742-1.4102 3.3984 0 1.3281 0.53516 2.5273 1.4102 3.3984 0.875 0.875 2.0742 1.4102 3.3984 1.4102 1.3281 0 2.5273-0.53516 3.3984-1.4102 0.875-0.875 1.4102-2.0742 1.4102-3.3984 0-1.3281-0.53516-2.5273-1.4102-3.3984-0.875-0.875-2.0742-1.4102-3.3984-1.4102zm1.832 2.9805c-0.47266-0.47266-1.1172-0.75781-1.832-0.75781s-1.3672 0.29297-1.832 0.75781c-0.47266 0.47266-0.75781 1.1172-0.75781 1.832 0 0.71484 0.29297 1.3672 0.75781 1.832 0.46484 0.47266 1.1172 0.75781 1.832 0.75781s1.3594-0.29297 1.832-0.75781c0.46484-0.46484 0.75781-1.1172 0.75781-1.832 0-0.71484-0.29297-1.3594-0.75781-1.832zm-26.75-78.168c-1.3281 0-2.5273 0.53516-3.3984 1.4102-0.875 0.875-1.4102 2.0742-1.4102 3.3984 0 1.3281 0.53516 2.5273 1.4102 3.3984 0.875 0.875 2.0742 1.4102 3.3984 1.4102 1.3281 0 2.5273-0.53516 3.3984-1.4102 0.875-0.875 1.4102-2.0742 1.4102-3.3984 0-1.3281-0.53516-2.5273-1.4102-3.3984-0.875-0.875-2.0742-1.4102-3.3984-1.4102zm1.832 2.9805c-0.47266-0.47266-1.1172-0.75781-1.832-0.75781s-1.3672 0.29297-1.832 0.75781c-0.46484 0.47266-0.75781 1.1172-0.75781 1.832 0 0.71484 0.29297 1.3594 0.75781 1.832 0.47266 0.47266 1.1172 0.75781 1.832 0.75781s1.3594-0.29297 1.832-0.75781c0.46484-0.47266 0.75781-1.1172 0.75781-1.832 0-0.71484-0.29297-1.3672-0.75781-1.832zm30.441 61.453h-17.199c-0.60938 0-1.1055-0.49609-1.1055-1.1055 0-0.60938 0.49609-1.1055 1.1055-1.1055h35.453c1.9492 0 3.7148-0.80078 5-2.0742 1.2852-1.2852 2.0742-3.0508 2.0742-5v-25.465c0-1.9492-0.80078-3.7148-2.0742-5-1.2852-1.2852-3.0508-2.0742-5-2.0742h-16.043v11.621c0 2.5586-1.043 4.8828-2.7266 6.5703-1.6836 1.6836-4.0117 2.7266-6.5703 2.7266h-25.465c-1.9492 0-3.7148 0.80078-5 2.0742-1.2852 1.2852-2.0742 3.0508-2.0742 5v29.875c0 1.9492 0.80078 3.7148 2.0742 5 1.2852 1.2852 3.0508 2.0742 5 2.0742h25.465c1.9492 0 3.7148-0.80078 5-2.0742 1.2852-1.2852 2.0742-3.0508 2.0742-5v-16.031zm-41.844-2.2227v-11.621c0-2.5586 1.043-4.8828 2.7266-6.5703 1.6836-1.6836 4.0117-2.7266 6.5703-2.7266h25.465c1.9492 0 3.7148-0.80078 5-2.0742 1.2852-1.2852 2.0742-3.0508 2.0742-5v-29.883c0-1.9492-0.80078-3.7148-2.0742-5-1.2734-1.2852-3.0508-2.0742-5-2.0742h-25.465c-1.9492 0-3.7148 0.80078-5 2.0742-1.2852 1.2734-2.0742 3.0508-2.0742 5v16.031h17.199c0.60938 0 1.1055 0.49609 1.1055 1.1055s-0.49609 1.1055-1.1055 1.1055h-35.449c-1.9492 0-3.7148 0.80078-5 2.0742-1.2852 1.2734-2.0742 3.0508-2.0742 5v25.465c0 1.9492 0.80078 3.7148 2.0742 5 1.2852 1.2852 3.0508 2.0742 5 2.0742h16.043z" fill-rule="evenodd"/>
<text x="0.0" y="117.5" font-size="5.0" font-weight="bold" font-family="Arbeit Regular, Helvetica, Arial-Unicode, Arial, Sans-serif" fill="#000000">Created by putrakali735</text><text x="0.0" y="122.5" font-size="5.0" font-weight="bold" font-family="Arbeit Regular, Helvetica, Arial-Unicode, Arial, Sans-serif" fill="#000000">from Noun Project</text></svg>