<svg xmlns="http://www.w3.org/2000/svg" version="1.1" viewBox="-5.0 -10.0 110.0 135.0">
 <path d="m6.25 8.332c0-1.1484 0.93359-2.082 2.082-2.082h58.336c0.55078 0 1.082 0.21875 1.4727 0.60938l25 25c0.39062 0.39062 0.60938 0.92188 0.60938 1.4727v58.336c0 1.1484-0.93359 2.082-2.082 2.082h-83.336c-1.1484 0-2.082-0.93359-2.082-2.082zm4.168 2.0859v79.164h79.164v-55.387l-23.777-23.777z" fill-rule="evenodd"/>
 <path d="m65.871 6.4102c0.77734-0.32422 1.6719-0.14453 2.2695 0.44922l25 25c0.59375 0.59766 0.77344 1.4922 0.44922 2.2695-0.32031 0.78125-1.082 1.2891-1.9219 1.2891h-25c-1.1523 0-2.0859-0.93359-2.0859-2.0859v-25c0-0.83984 0.50781-1.6016 1.2891-1.9219zm2.8789 6.9531v17.887h17.887z" fill-rule="evenodd"/>
 <path d="m47.918 56.25c0-1.1523 0.92969-2.082 2.082-2.082h8.332c4.6055 0 8.3359 3.7305 8.3359 8.332s-3.7305 8.332-8.3359 8.332h-3.3008l11.027 11.027-2.9492 2.9492-11.027-11.027v9.5508h-4.1641zm4.1641 10.418v-8.3359h6.25c2.3008 0 4.168 1.8672 4.168 4.168s-1.8672 4.168-4.168 4.168z" fill-rule="evenodd"/>
 <path d="m28.223 45.719c-5.0547 2.5273-7.3906 5.6367-7.3906 8.4492s2.3359 5.918 7.3906 8.4492c4.9336 2.4648 11.895 4.0508 19.695 4.0508 0.67578 0 1.3438-0.011719 2.0078-0.035157l0.14844 4.1641c-0.71484 0.023437-1.4336 0.035156-2.1562 0.035156-8.3086 0-15.934-1.6797-21.559-4.4883-5.4961-2.75-9.6914-6.9375-9.6914-12.176 0-5.2422 4.1953-9.4258 9.6914-12.176 5.625-2.8125 13.25-4.4922 21.559-4.4922 8.3047 0 15.93 1.6797 21.555 4.4922 5.5 2.75 9.6953 6.9336 9.6953 12.176 0 5.8242-5.1562 10.344-11.695 13.09-0.41016 0.17188-0.96484 0.36328-1.5859 0.33203-0.74219-0.042969-1.2344-0.39062-1.3711-0.48828-0.003906-0.003906-0.011719-0.007812-0.015625-0.011718-0.035156-0.023438 0.21094 0.16016 0.5625 0.20703 0.035156 0.003906 0.0625 0.007813 0.089844 0.011719l-1.1484-3.9727c0.49609-0.14453 1.0547-0.24609 1.6289-0.16406 0.1875 0.023437 0.35938 0.066406 0.51953 0.12109 6-2.5898 8.8477-6.0352 8.8477-9.125 0-2.8125-2.3359-5.9219-7.3906-8.4492-4.9336-2.4648-11.891-4.0508-19.691-4.0508s-14.762 1.5859-19.695 4.0508zm37.523 17.742s0.003906-0.003907 0.011718-0.003907c-0.007812 0.003907-0.011718 0.003907-0.011718 0.003907zm1.1445 0.21875c0.007813 0.003906 0.011719 0.007812 0.011719 0.007812s-0.003906-0.003906-0.011719-0.007812z" fill-rule="evenodd"/>
<text x="0.0" y="117.5" font-size="5.0" font-weight="bold" font-family="Arbeit Regular, Helvetica, Arial-Unicode, Arial, Sans-serif" fill="#000000">Created by Kawalan Icon</text><text x="0.0" y="122.5" font-size="5.0" font-weight="bold" font-family="Arbeit Regular, Helvetica, Arial-Unicode, Arial, Sans-serif" fill="#000000">from Noun Project</text></svg>