<svg xmlns="http://www.w3.org/2000/svg" version="1.1" viewBox="-5.0 -10.0 110.0 135.0">
 <path d="m21.438 25.277h-3.1211c-1.4844 0-2.6914-1.207-2.6914-2.6914v-0.32813c0-0.73437 0.59766-1.332 1.332-1.332s1.332 0.59766 1.332 1.332v0.32813l3.1523 0.03125 0.03125-2.1055c0-0.21484-0.035156-0.28906-0.039062-0.28906-0.18359-0.12891-1.0742-0.13281-1.5586-0.12891-0.83203 0.007812-1.7148 0-2.4961-0.3125-1.1289-0.44922-1.75-1.4297-1.75-2.7578v-2.0742c0-1.4844 1.207-2.6914 2.6914-2.6914h3.1211c1.4844 0 2.6914 1.207 2.6914 2.6914v0.32812c0 0.73438-0.59766 1.332-1.332 1.332s-1.332-0.59766-1.332-1.332v-0.32812l-3.1523-0.03125-0.03125 2.1055c0 0.21094 0.035156 0.28125 0.035156 0.28125 0.17969 0.125 1.0742 0.125 1.5469 0.125 0.84766 0.003906 1.7188 0 2.5039 0.3125 1.1289 0.44922 1.7539 1.4336 1.7539 2.7695v2.0742c0 1.4844-1.207 2.6953-2.6914 2.6953z" fill-rule="evenodd"/>
 <path d="m32.359 25.277h-1.1562c-2.0273 0-3.6797-1.6484-3.6797-3.6797v-5.6641c0-2.0273 1.6484-3.6797 3.6797-3.6797h1.1562c2.0273 0 3.6797 1.6484 3.6797 3.6797v5.6641c0 2.0273-1.6484 3.6797-3.6797 3.6797zm-1.1562-10.359c-0.5625 0-1.0156 0.45703-1.0156 1.0156v5.6641c0 0.5625 0.45703 1.0156 1.0156 1.0156h1.1562c0.5625 0 1.0156-0.45703 1.0156-1.0156v-5.6641c0-0.5625-0.45703-1.0156-1.0156-1.0156z" fill-rule="evenodd"/>
 <path d="m36.523 25.246c-0.26172 0-0.52734-0.078125-0.75781-0.23828l-3.6328-2.5312c-0.60156-0.42187-0.75-1.25-0.33203-1.8516 0.42188-0.60156 1.25-0.75 1.8516-0.33203l3.6328 2.5312c0.60156 0.42188 0.75 1.25 0.33203 1.8516-0.25781 0.37109-0.67188 0.57031-1.0938 0.57031z" fill-rule="evenodd"/>
 <path d="m48.434 25.277h-5.8516c-0.73438 0-1.332-0.59766-1.332-1.332v-10.359c0-0.73438 0.59766-1.332 1.332-1.332s1.332 0.59766 1.332 1.332v9.0273h4.5195c0.73438 0 1.332 0.59766 1.332 1.332 0 0.73438-0.59766 1.332-1.332 1.332z" fill-rule="evenodd"/>
 <path d="m84.453 92.762h-61.684c-4.7227 0-8.5664-3.8438-8.5664-8.5664v-54.375c0-0.73437 0.59766-1.332 1.332-1.332h39.605c0.33984 0 0.625-0.28516 0.625-0.625v-18.199c0-0.33984-0.28516-0.625-0.625-0.625h-39.555c-0.37891 0-0.74219-0.16406-0.99609-0.44922s-0.37109-0.66406-0.32812-1.0391c0.51172-4.3086 4.1719-7.5547 8.5078-7.5547h44.523c0.73047 0 1.3281 0.59375 1.332 1.3242 0 0.10938-0.011719 0.21484-0.035156 0.31641v20.949c0 3.2539 2.6484 5.9023 5.9023 5.9023h17.199c0.73438 0 1.332 0.59766 1.332 1.332v54.375c0 4.7227-3.8438 8.5664-8.5664 8.5664zm-67.59-61.613v53.047c0 3.2578 2.6484 5.9062 5.9062 5.9062h61.684c3.2578 0 5.9062-2.6484 5.9062-5.9062v-53.047h-15.871c-4.7227 0-8.5625-3.8398-8.5625-8.5625v-19.922h-43.156c-2.4648 0-4.6094 1.5234-5.4844 3.7188h37.855c1.8125 0 3.2852 1.4727 3.2852 3.2852v18.199c0 1.8125-1.4727 3.2852-3.2852 3.2852h-38.277z" fill-rule="evenodd"/>
 <path d="m77.215 100h-61.684c-4.7227 0-8.5664-3.8438-8.5664-8.5664v-63.566c0-0.73438 0.59766-1.332 1.332-1.332s1.332 0.59766 1.332 1.332c0 0.33594 0.28516 0.625 0.625 0.625h5.2812c0.73438 0 1.332 0.59766 1.332 1.332v54.375c0 3.2578 2.6484 5.9062 5.9062 5.9062h61.684c0.73438 0 1.332 0.59766 1.332 1.332 0 4.7227-3.8438 8.5664-8.5664 8.5664zm-67.59-68.91v60.344c0 3.2578 2.6484 5.9062 5.9062 5.9062h61.684c2.8008 0 5.1484-1.957 5.7539-4.5742h-60.203c-4.7227 0-8.5664-3.8438-8.5664-8.5664v-53.047h-3.9531c-0.21484 0-0.42188-0.019532-0.625-0.058594z" fill-rule="evenodd"/>
 <path d="m55.141 31.148h-44.891c-1.8125 0-3.2852-1.4727-3.2852-3.2852v-18.199c0-1.8125 1.4727-3.2852 3.2852-3.2852h44.891c1.8125 0 3.2852 1.4727 3.2852 3.2852v18.199c0 1.8125-1.4727 3.2852-3.2852 3.2852zm-44.891-22.105c-0.33984 0-0.625 0.28516-0.625 0.625v18.199c0 0.33594 0.28516 0.625 0.625 0.625h44.891c0.33984 0 0.625-0.28516 0.625-0.625v-18.199c0-0.33984-0.28516-0.625-0.625-0.625z" fill-rule="evenodd"/>
 <path d="m91.707 31.148h-0.015625-17.199c-4.7227 0-8.5625-3.8398-8.5625-8.5625v-21.254c0-0.55859 0.34766-1.0547 0.86719-1.25 0.51953-0.19531 1.1094-0.042969 1.4727 0.38281l24.324 28.359c0.27344 0.24219 0.44531 0.59766 0.44531 0.99609 0 0.73438-0.59375 1.332-1.332 1.332zm-23.117-26.223v17.66c0 3.2539 2.6484 5.9023 5.9023 5.9023h14.305z" fill-rule="evenodd"/>
 <path d="m80.191 83.785h-53.16c-2.8906 0-5.2383-2.3516-5.2383-5.2383v-35.844c0-2.8906 2.3516-5.2383 5.2383-5.2383h53.16c2.8906 0 5.2383 2.3516 5.2383 5.2383v35.844c0 2.8906-2.3516 5.2383-5.2383 5.2383zm-53.16-43.66c-1.4219 0-2.5781 1.1562-2.5781 2.5781v35.844c0 1.4219 1.1562 2.5781 2.5781 2.5781h53.16c1.4219 0 2.5781-1.1562 2.5781-2.5781v-35.844c0-1.4219-1.1562-2.5781-2.5781-2.5781z" fill-rule="evenodd"/>
 <path d="m53.609 78.988c-5.8828 0-11.859-3.2109-11.859-5.5195v-25.598c0-0.73438 0.59766-1.332 1.332-1.332s1.332 0.59766 1.332 1.332c0 1.0391 3.4922 2.9453 9.1953 2.9453s9.1953-1.9062 9.1953-2.9453c0-0.73438 0.59766-1.332 1.332-1.332s1.332 0.59766 1.332 1.332v25.598c0 2.3086-5.9766 5.5195-11.855 5.5195zm-9.1953-5.7734c0.67188 0.78516 4.3633 3.1094 9.1953 3.1094 4.8359 0 8.5234-2.3242 9.1953-3.1094v-21.676c-4.5781 2.5586-13.816 2.5586-18.391 0z" fill-rule="evenodd"/>
 <path d="m53.609 53.477c-5.8906 0-11.859-1.9258-11.859-5.6094 0-3.6797 5.9648-5.6055 11.859-5.6055 5.8906 0 11.855 1.9258 11.855 5.6055 0 3.6797-5.9648 5.6094-11.855 5.6094zm0-8.5508c-5.707 0-9.1953 1.9062-9.1953 2.9453 0 1.0391 3.4922 2.9453 9.1953 2.9453s9.1953-1.9062 9.1953-2.9453c0-1.0391-3.4922-2.9453-9.1953-2.9453z" fill-rule="evenodd"/>
 <path d="m53.609 72.945c-6.7617 0-11.859-2.6211-11.859-6.0977 0-0.73438 0.59766-1.332 1.332-1.332s1.332 0.59766 1.332 1.332c0 1.4023 3.582 3.4375 9.1953 3.4375s9.1953-2.0352 9.1953-3.4375c0-0.73438 0.59766-1.332 1.332-1.332s1.332 0.59766 1.332 1.332c0 3.4766-5.0977 6.0977-11.855 6.0977z" fill-rule="evenodd"/>
 <path d="m53.609 66.477c-6.7617 0-11.859-2.6211-11.859-6.0977 0-0.73438 0.59766-1.332 1.332-1.332s1.332 0.59766 1.332 1.332c0 1.4023 3.582 3.4375 9.1953 3.4375s9.1953-2.0352 9.1953-3.4375c0-0.73438 0.59766-1.332 1.332-1.332s1.332 0.59766 1.332 1.332c0 3.4766-5.0977 6.0977-11.855 6.0977z" fill-rule="evenodd"/>
 <path d="m53.609 60.008c-6.7617 0-11.859-2.6211-11.859-6.0977 0-0.73438 0.59766-1.332 1.332-1.332s1.332 0.59766 1.332 1.332c0 1.4023 3.582 3.4375 9.1953 3.4375s9.1953-2.0352 9.1953-3.4375c0-0.73438 0.59766-1.332 1.332-1.332s1.332 0.59766 1.332 1.332c0 3.4766-5.0977 6.0977-11.855 6.0977z" fill-rule="evenodd"/>
<text x="0.0" y="117.5" font-size="5.0" font-weight="bold" font-family="Arbeit Regular, Helvetica, Arial-Unicode, Arial, Sans-serif" fill="#000000">Created by Muhammad Shabraiz</text><text x="0.0" y="122.5" font-size="5.0" font-weight="bold" font-family="Arbeit Regular, Helvetica, Arial-Unicode, Arial, Sans-serif" fill="#000000">from Noun Project</text></svg>